<svg xmlns="http://www.w3.org/2000/svg" width="192" height="192" viewBox="0 0 192 192" role="img" aria-label="SilentVoice icon">
  <defs>
    <linearGradient id="bg192" x1="0%" y1="0%" x2="100%" y2="100%">
      <stop offset="0%" stop-color="#2563eb"/>
      <stop offset="100%" stop-color="#0f172a"/>
    </linearGradient>
  </defs>
  <rect width="192" height="192" rx="42" fill="url(#bg192)"/>
  <circle cx="96" cy="96" r="52" fill="rgba(255,255,255,0.12)"/>
  <path d="M62 115c14 14 54 14 68-5 8-10 7-26-5-35-7-5-16-7-24-5-4-15-18-24-33-21-19 4-29 26-19 43 2 4 6 8 13 12z" fill="#f8fafc"/>
  <path d="M82 69c6 0 11 5 11 11v18h17c6 0 11 5 11 11s-5 11-11 11H82c-6 0-11-5-11-11V80c0-6 5-11 11-11z" fill="#38bdf8"/>
</svg>
